<svg xmlns="http://www.w3.org/2000/svg" xmlns:xlink="http://www.w3.org/1999/xlink" width="2048" height="1024" viewBox="0 0 2048 1024"><defs><style>.a,.c{fill:none;}.ae,.af,.b,.s,.y,.z{fill:#fff;}.c{stroke:#fff;stroke-miterlimit:10;}.d{fill:#2e3192;}.e,.g,.h,.i{fill-rule:evenodd;}.e{fill:url(#a);}.f{opacity:0.5;}.g,.h{fill:#0c2577;}.g{fill-opacity:0.6;opacity:0.8;}.g,.i{isolation:isolate;}.i{opacity:0.1;fill:url(#b);}.j{clip-path:url(#c);}.k,.y{opacity:0.5;}.l{fill:url(#d);}.m,.z{opacity:0.3;}.n{fill:#3588bc;}.o{fill:url(#f);}.p{clip-path:url(#g);}.q{fill:#edc8a6;}.aa,.r{fill:#f1f2f2;}.s{opacity:0.7;}.t{fill:url(#h);}.u{fill:#4088ee;}.v{fill:#1260cf;}.w{fill:#d1d3d4;}.x{fill:#231f20;}.aa{opacity:0.8;}.ab{fill:url(#i);}.ac{fill:#939598;}.ad{fill:#58595b;}.ae{opacity:0.1;}.af{opacity:0.2;}.ag{clip-path:url(#j);}.ah{fill:#8c0017;}</style><radialGradient id="a" cx="342.28" cy="896.45" r="0.47" gradientTransform="matrix(-154.75, 1913.76, 3353.47, 271.18, -2952474.15, -897729.46)" gradientUnits="userSpaceOnUse"><stop offset="0" stop-color="#0960ef"/><stop offset="0.61" stop-color="#0b369a"/><stop offset="1" stop-color="#0c2577"/></radialGradient><radialGradient id="b" cx="342.4" cy="896.65" r="0.35" gradientTransform="matrix(-178.12, 1911.73, 2241.75, 208.85, -1948056.62, -841498.9)" xlink:href="#a"/><clipPath id="c"><rect class="a" y="-0.35" width="2048" height="1024"/></clipPath><pattern id="d" width="133.22" height="100" patternTransform="translate(7150.88 2302.91) rotate(-45)" patternUnits="userSpaceOnUse" viewBox="0 0 133.22 100"><rect class="a" width="133.22" height="100"/><line class="c" y1="90" x2="133.22" y2="90"/><line class="c" y1="70" x2="133.22" y2="70"/><line class="c" y1="50" x2="133.22" y2="50"/><line class="c" y1="30" x2="133.22" y2="30"/><line class="c" y1="10" x2="133.22" y2="10"/></pattern><pattern id="f" width="60" height="60" patternTransform="translate(2838 10.35)" patternUnits="userSpaceOnUse" viewBox="0 0 60 60"><rect class="a" width="60" height="60"/><path class="b" d="M59.39,50a2.73,2.73,0,1,1-2.72-2.72A2.72,2.72,0,0,1,59.39,50Z"/><path class="b" d="M39.39,50a2.73,2.73,0,1,1-2.72-2.72A2.72,2.72,0,0,1,39.39,50Z"/><path class="b" d="M19.39,50a2.73,2.73,0,1,1-2.72-2.72A2.72,2.72,0,0,1,19.39,50Z"/><circle class="b" cx="50" cy="30" r="2.72"/><circle class="b" cx="30" cy="30" r="2.72"/><circle class="b" cx="10" cy="30" r="2.72"/><circle class="b" cx="43.33" cy="10" r="2.72"/><circle class="b" cx="23.33" cy="10" r="2.72"/><circle class="b" cx="3.33" cy="10" r="2.72"/></pattern><clipPath id="g"><rect class="a" x="1068.73" y="272.44" width="827.31" height="751.56"/></clipPath><linearGradient id="h" x1="223.2" y1="1105.17" x2="337.32" y2="1105.17" gradientTransform="matrix(0.12, -0.99, 0.99, 0.12, 367.1, 682.84)" gradientUnits="userSpaceOnUse"><stop offset="0" stop-color="#00b9ce"/><stop offset="1" stop-color="#46edbc"/></linearGradient><linearGradient id="i" x1="1593.03" y1="779.36" x2="1593.03" y2="548.9" gradientUnits="userSpaceOnUse"><stop offset="0" stop-color="#00b9ce"/><stop offset="0.99" stop-color="#46edbc"/></linearGradient><clipPath id="j"><rect class="a" x="2348" y="-0.7" width="2048" height="1024"/></clipPath></defs><rect class="d" y="0.35" width="2048" height="1024"/><path class="e" d="M-4.25-568.38H2056.44V1573H-4.25Z"/><g class="f"><path class="g" d="M1405.59-201.23,828.17,8.87l-307.23,532,106.7,605,470.71,394.87h614.47l470.72-394.87,106.7-605L1983,8.87Z"/><path class="h" d="M28.39,595-282.76,1133.9l108.06,612.8,476.71,400h622.3l476.71-400,108.06-612.8L1197.93,595,613.16,382.2Z"/></g><path class="i" d="M-4.25-116H2056.44V2025.38H-4.25Z"/><g class="j"><g class="k"><path class="l" d="M1463.46-148.26a11.8,11.8,0,0,0,2.27,12.39c4.35,10.39,5.14,29.41,1.85,40.56a95.88,95.88,0,0,0-17.72,3c-.23-2.2-.38-4.42-.44-6.64a11.59,11.59,0,0,0-.05-9,11.7,11.7,0,0,0-12.76-6.92,11.66,11.66,0,0,0-9.14,14.8,11.6,11.6,0,0,0,4.76,6.42,45.66,45.66,0,0,1,3.72,6.25,95.81,95.81,0,0,0-19.82,11.81,89.78,89.78,0,0,1-26.58-33.67,11.6,11.6,0,0,0-3.52-8.3,11.69,11.69,0,0,0-14.44-1.45,11.66,11.66,0,0,0-2.72,17.18,11.65,11.65,0,0,0,6.86,4.08c10.16,6.23,23.12,21.86,28.12,33.51a95.57,95.57,0,0,0-15.76,23.61q-2.53-1.87-4.93-3.93a11.65,11.65,0,0,0-6.7-6,11.71,11.71,0,0,0-13.71,4.79,11.67,11.67,0,0,0,4.8,16.72,11.61,11.61,0,0,0,8,.8,47.26,47.26,0,0,1,7.35,1.52,95.74,95.74,0,0,0-3.78,26.66q0,3.29.23,6.51a96.13,96.13,0,0,1-45.89,12.21,11.65,11.65,0,1,0,4.79,17.36c10.29-6.85,30.83-12.45,43.89-12.19a95.31,95.31,0,0,0,27.59,46.12A91.36,91.36,0,0,1,1380.41,104a11.66,11.66,0,1,0,13.84,11.48c4.51-11.67,18.58-28.29,29.38-34.89a94.94,94.94,0,0,0,50.84,14.67,95.93,95.93,0,0,0,16.89-1.49,95.05,95.05,0,0,1,14.44,45.1,11.66,11.66,0,1,0,17.1-5.63c-7.58-10.23-14.33-31.41-14.24-44.3a95.28,95.28,0,0,0,23-12.68,90.14,90.14,0,0,1,6.6,13.41,11.66,11.66,0,1,0,14.41-10.76A63,63,0,0,1,1541.19,68a95.82,95.82,0,0,0,15.65-20c1.21,1.18,2.39,2.41,3.54,3.65a11.66,11.66,0,1,0,9.54-15.25,46.91,46.91,0,0,1-6.46-2.11,98,98,0,0,0,3.26-10,91.55,91.55,0,0,1,45.34,9.45,11.66,11.66,0,1,0,3.51-17.64c-12.85,1.65-35.26-3.2-45.8-9.92l-.16.75q.26-3.48.26-7a96.62,96.62,0,0,0-1.35-16.07,11.85,11.85,0,0,0,10.73-2.46,10.9,10.9,0,0,0,3.94-8,11.7,11.7,0,0,0-15.19-12,11.57,11.57,0,0,0-4.91,3.05A94.94,94.94,0,0,0,1556-49.67a95,95,0,0,1,36.69-29.72,11.65,11.65,0,0,0,8.3-3.49,11.69,11.69,0,0,0,1.51-14.44,11.67,11.67,0,0,0-17.17-2.79,11.64,11.64,0,0,0-4.1,6.83c-6.74,10.72-23.88,24.61-35.91,29.28a95.18,95.18,0,0,0-10.58-10.09A88.07,88.07,0,0,1,1545-84.32a11.62,11.62,0,0,0,7-5.67,11.7,11.7,0,0,0-2.59-14.28,11.67,11.67,0,0,0-17.27,2.12,11.6,11.6,0,0,0-2,7.73,59.82,59.82,0,0,1-5.71,13,94.62,94.62,0,0,0-39.18-13.49,76,76,0,0,1-1.61-41.81,11.58,11.58,0,0,0,2.34-7.46,11.73,11.73,0,0,0-17-10A10.62,10.62,0,0,0,1463.46-148.26Z"/></g><g class="k"><path class="l" d="M1633,385.88c-3.39,9.17-1,17.86,4.33,23.68,8.31,19.84,9.82,56.17,3.55,77.46a181.58,181.58,0,0,0-33.85,5.66q-.66-6.33-.85-12.69a22.26,22.26,0,1,0-32.83,10.1,89.31,89.31,0,0,1,7.11,11.93,182,182,0,0,0-37.85,22.57c-23-18.18-39.63-39.77-50.77-64.32a22.28,22.28,0,1,0-26.39,22c19.39,11.91,44.15,41.77,53.69,64a182.36,182.36,0,0,0-30.09,45.1q-4.85-3.58-9.43-7.51A22.26,22.26,0,1,0,1465,614.92a90.25,90.25,0,0,1,14.06,2.91,182.41,182.41,0,0,0-7.22,50.92q0,6.27.43,12.43c-28.72,15.68-58,23.07-87.65,23.32a22.27,22.27,0,1,0,9.15,33.16c19.66-13.09,58.89-23.78,83.83-23.29a182.06,182.06,0,0,0,52.69,88.09c-14,27.55-32.82,49-55.91,65.19a22.26,22.26,0,1,0,26.45,21.93c8.61-22.29,35.48-54,56.12-66.64A181.31,181.31,0,0,0,1654,851a183.25,183.25,0,0,0,32.25-2.84c17.13,27.82,25.93,56.57,27.59,86.14a22.26,22.26,0,1,0,32.65-10.76c-14.47-19.53-27.36-60-27.19-84.6a181.73,181.73,0,0,0,43.85-24.23,172.39,172.39,0,0,1,12.6,25.62,22.26,22.26,0,1,0,27.53-20.55c-7-4.84-14.62-12.22-21.86-20.76a182.94,182.94,0,0,0,29.89-38.25c2.33,2.25,4.58,4.59,6.78,7a22.26,22.26,0,1,0,18.21-29.13,88.71,88.71,0,0,1-12.34-4,177.94,177.94,0,0,0,6.22-19.17c31.94-1.28,60.66,5.09,86.61,18a22.27,22.27,0,1,0,6.7-33.69c-24.55,3.15-67.34-6.11-87.48-19l-.3,1.45q.49-6.66.5-13.45a183.8,183.8,0,0,0-2.59-30.7,22.56,22.56,0,0,0,20.49-4.7,20.79,20.79,0,0,0,7.54-15.2c.68-16.74-14.76-27.34-29-22.83a22.18,22.18,0,0,0-9.38,5.85,181.23,181.23,0,0,0-13.48-27c19.67-25.94,43.21-44.52,70.08-56.76A22.27,22.27,0,1,0,1858,490.9c-12.88,20.47-45.61,47-68.58,55.91a183,183,0,0,0-20.22-19.25A169,169,0,0,1,1788.7,508a22.26,22.26,0,1,0-28.42-19.29c-2.06,7.44-5.94,16-10.89,24.75a181,181,0,0,0-74.84-25.77c-8.73-27.67-9.38-54.24-3.07-79.84a22.19,22.19,0,0,0,4.47-14.25c-.59-15.32-16.54-26.44-32.46-19.09A20.3,20.3,0,0,0,1633,385.88Z"/></g><g class="m"><path class="n" d="M1954.23,336.51c-12.39,14.68-13.83,32.29-7.79,46.61,2.13,42.19-19.29,110.3-45.06,145.45a357.3,357.3,0,0,0-66.28-12.11q3-12.12,6.88-24a43.72,43.72,0,1,0-67.36-3.22,176.63,176.63,0,0,1,5.17,26.78,357.66,357.66,0,0,0-85,16.45c-30.33-48.89-46.68-99.86-50.9-152.63a43.73,43.73,0,1,0-63.39,23c27.89,34.92,53.72,106.56,56.52,154a358.11,358.11,0,0,0-85.64,63.25q-6.54-9.86-12.4-20.17a43.72,43.72,0,1,0-47.72,47.65,179.68,179.68,0,0,1,24,14.73,358.13,358.13,0,0,0-47.27,89.25c-2.79,7.72-5.26,15.47-7.49,23.24-63.5,9.82-122.43,4-177.43-15.34a43.72,43.72,0,1,0-5.19,67.34c45-11.06,124.61-4.66,170.34,12.85a357.54,357.54,0,0,0,38.62,197.82c-44.15,41.57-93.27,68.64-146.69,83.15a43.72,43.72,0,1,0,34.23,58.13c30.75-35.45,101.53-76.17,148-85.69a358.87,358.87,0,0,0,222.13,132.68c13.09,62.78,10.19,121.77-6.46,177.48a43.72,43.72,0,1,0,67.49,1.88c-13.71-45.71-10.56-129,6.15-174.37a357,357,0,0,0,97.13-15.53,337.14,337.14,0,0,1,6.2,55.72,43.73,43.73,0,1,0,64.54-19.61c-9.69-13.61-18.84-32.31-26.53-52.91a359.39,359.39,0,0,0,80.7-50.73c2.79,5.71,5.39,11.52,7.86,17.39a43.73,43.73,0,1,0,53.06-41.66,176,176,0,0,1-20.09-15.69,357.22,357.22,0,0,0,24.26-31.27c59.85,18.92,108.64,49.83,147.92,91.06a43.73,43.73,0,1,0,34.83-57.77c-47.44-10.54-120.3-56.15-148.93-93.3l-1.52,2.47q5.34-12,9.87-24.51A358.9,358.9,0,0,0,2156.78,936c11,7.62,25.55,10.46,41,5a40.82,40.82,0,0,0,24-23.05c12.42-30.47-9-60.34-38.39-61.5a43.49,43.49,0,0,0-21.21,4.54,356,356,0,0,0-6.91-58.81c53.61-34.81,109.46-53.44,167.25-58.15a43.72,43.72,0,1,0-22.75-63.57c-37.42,29.22-115.55,56.41-163.93,57.57a358.4,358.4,0,0,0-24.51-49,334.3,334.3,0,0,1,49-23.11,43.72,43.72,0,1,0-39.63-54.56c-8.77,12.36-21.66,25.65-36.61,38.44a355.6,355.6,0,0,0-121.06-97.46c2.32-56.93,18.82-106.42,47.53-149.51a43.52,43.52,0,0,0,17.75-23.34c9.12-28.7-12.93-59.85-47.23-56.89A39.88,39.88,0,0,0,1954.23,336.51Z"/></g><g class="m"><path class="n" d="M822.47,694.57a8.82,8.82,0,0,0-1.55,9.26c.42,8.38-3.83,21.91-8.95,28.89a70.46,70.46,0,0,0-13.17-2.4c.4-1.61.85-3.2,1.37-4.77a8.69,8.69,0,1,0-13.38-.64,35.13,35.13,0,0,1,1,5.32,70.75,70.75,0,0,0-16.88,3.27,67,67,0,0,1-10.11-30.32,8.68,8.68,0,1,0-12.59,4.57c5.54,6.94,10.67,21.17,11.23,30.59a71.39,71.39,0,0,0-17,12.56c-.86-1.3-1.68-2.64-2.46-4a8.69,8.69,0,1,0-9.48,9.46,34.4,34.4,0,0,1,4.77,2.93A71.13,71.13,0,0,0,725.89,777q-.82,2.29-1.48,4.61a71.75,71.75,0,0,1-35.25-3,8.68,8.68,0,1,0-1,13.37c9-2.2,24.75-.93,33.84,2.55a71,71,0,0,0,7.67,39.3,68,68,0,0,1-29.14,16.51,8.68,8.68,0,1,0,6.8,11.55c6.11-7,20.17-15.13,29.41-17A70.75,70.75,0,0,0,768.62,868a72.16,72.16,0,0,0,12.21,3.22,70.85,70.85,0,0,1-1.28,35.26,8.69,8.69,0,1,0,13.4.37c-2.72-9.08-2.09-25.63,1.23-34.63a71.09,71.09,0,0,0,19.29-3.09,66.51,66.51,0,0,1,1.23,11.07,8.68,8.68,0,1,0,12.82-3.9,47,47,0,0,1-5.27-10.51,71.55,71.55,0,0,0,16-10.07q.83,1.69,1.56,3.45a8.68,8.68,0,1,0,10.54-8.28,34.28,34.28,0,0,1-4-3.11,71.45,71.45,0,0,0,4.82-6.21,68.21,68.21,0,0,1,29.38,18.08,8.69,8.69,0,1,0,6.92-11.47c-9.42-2.09-23.9-11.15-29.58-18.53l-.31.49q1.07-2.39,2-4.87a72.18,72.18,0,0,0,3.11-11.6,8.82,8.82,0,0,0,8.14,1,8.13,8.13,0,0,0,4.78-4.57A8.73,8.73,0,0,0,868,797.84a8.63,8.63,0,0,0-4.21.9,72.19,72.19,0,0,0-1.37-11.68,70.56,70.56,0,0,1,33.22-11.55,8.69,8.69,0,1,0-4.52-12.63c-7.44,5.81-23,11.21-32.56,11.44a71.38,71.38,0,0,0-4.87-9.74,65.06,65.06,0,0,1,9.74-4.59,8.69,8.69,0,1,0-7.87-10.84,44.36,44.36,0,0,1-7.28,7.63,70.41,70.41,0,0,0-24-19.35,56.62,56.62,0,0,1,9.44-29.7,8.62,8.62,0,0,0,3.52-4.64,8.74,8.74,0,0,0-9.38-11.3A7.91,7.91,0,0,0,822.47,694.57Z"/></g><g class="k"><path class="o" d="M221.23,534.12a12.86,12.86,0,0,0,2.46,13.46c4.73,11.27,5.58,31.92,2,44a103.25,103.25,0,0,0-19.23,3.21c-.25-2.39-.42-4.79-.49-7.21a12.65,12.65,0,1,0-18.65,5.74,52.27,52.27,0,0,1,4,6.79A103,103,0,0,0,169.86,613,97.41,97.41,0,0,1,141,576.4a12.65,12.65,0,1,0-15,12.49c11,6.77,25.09,23.73,30.51,36.38a103.49,103.49,0,0,0-17.11,25.63q-2.74-2-5.35-4.28a12.66,12.66,0,1,0-8.31,17.66,50.6,50.6,0,0,1,8,1.66,103.84,103.84,0,0,0-4.1,28.94c0,2.37.09,4.72.24,7.06a104.32,104.32,0,0,1-49.81,13.25A12.66,12.66,0,1,0,85.27,734c11.18-7.43,33.47-13.51,47.64-13.23a103.44,103.44,0,0,0,30,50.06,99.14,99.14,0,0,1-31.77,37,12.66,12.66,0,1,0,15,12.46C151,807.7,166.28,789.66,178,782.5a103.78,103.78,0,0,0,73.5,14.3,103.1,103.1,0,0,1,15.68,49,12.65,12.65,0,1,0,18.56-6.12c-8.23-11.1-15.55-34.09-15.46-48.07a103.12,103.12,0,0,0,24.92-13.78,97.4,97.4,0,0,1,7.16,14.57A12.66,12.66,0,1,0,318,780.68a68.58,68.58,0,0,1-12.42-11.8,103.93,103.93,0,0,0,17-21.74c1.33,1.28,2.6,2.61,3.85,4a12.65,12.65,0,1,0,10.36-16.55,50.58,50.58,0,0,1-7-2.3,100.49,100.49,0,0,0,3.54-10.9,99.32,99.32,0,0,1,49.21,10.27,12.66,12.66,0,1,0,3.81-19.15c-13.95,1.79-38.26-3.47-49.71-10.77l-.17.82c.18-2.53.28-5.07.28-7.64a104.47,104.47,0,0,0-1.47-17.45,12.84,12.84,0,0,0,11.65-2.67,11.87,11.87,0,0,0,4.28-8.64,12.71,12.71,0,0,0-16.49-13,12.55,12.55,0,0,0-5.33,3.32,103.54,103.54,0,0,0-7.66-15.34,103.12,103.12,0,0,1,39.82-32.26,12.65,12.65,0,1,0-12.44-15.07c-7.31,11.64-25.91,26.71-39,31.78a104.22,104.22,0,0,0-11.49-10.94,96.08,96.08,0,0,1,11.08-11.11,12.65,12.65,0,1,0-16.15-11,64.86,64.86,0,0,1-6.19,14.06A102.82,102.82,0,0,0,244.84,592a82.53,82.53,0,0,1-1.75-45.38,12.51,12.51,0,0,0,2.54-8.09,12.73,12.73,0,0,0-18.44-10.85A11.54,11.54,0,0,0,221.23,534.12Z"/></g><g class="m"><path class="n" d="M336.09,735.69a4.3,4.3,0,0,0-.75,4.52c.21,4.1-1.87,10.7-4.37,14.11a34.53,34.53,0,0,0-6.43-1.17c.19-.78.41-1.56.66-2.33a4.24,4.24,0,1,0-6.53-.31,16.45,16.45,0,0,1,.5,2.6,34.24,34.24,0,0,0-8.24,1.59A32.7,32.7,0,0,1,306,739.9a4.24,4.24,0,1,0-8,0,4.18,4.18,0,0,0,1.84,2.25c2.71,3.39,5.21,10.34,5.49,14.94A34.56,34.56,0,0,0,297,763.2c-.43-.63-.83-1.29-1.2-2a4.25,4.25,0,1,0-4.63,4.62,18.15,18.15,0,0,1,2.33,1.43,34.44,34.44,0,0,0-4.59,8.66c-.27.74-.51,1.5-.73,2.25A34.94,34.94,0,0,1,271,776.72a4.24,4.24,0,1,0-.5,6.54c4.37-1.08,12.09-.46,16.52,1.24a34.69,34.69,0,0,0,3.75,19.19,33.15,33.15,0,0,1-14.23,8.07,4.24,4.24,0,1,0,3.32,5.64c3-3.44,9.85-7.39,14.36-8.31a34.58,34.58,0,0,0,15.59,11.29,35.7,35.7,0,0,0,6,1.58,34.46,34.46,0,0,1-.63,17.21,4.25,4.25,0,1,0,6.55.19c-1.33-4.44-1-12.52.6-16.92a34.29,34.29,0,0,0,9.42-1.51,32.82,32.82,0,0,1,.6,5.41,4.2,4.2,0,0,0,0,3.28,4.24,4.24,0,1,0,6.25-5.18A22.78,22.78,0,0,1,336,819.3a34.72,34.72,0,0,0,7.83-4.92c.27.56.52,1.12.76,1.69a4.24,4.24,0,1,0,5.15-4,16.49,16.49,0,0,1-2-1.52,35.11,35.11,0,0,0,2.35-3,33.31,33.31,0,0,1,14.35,8.84,4.24,4.24,0,1,0,6.22-5,4.19,4.19,0,0,0-2.84-.59c-4.6-1-11.67-5.44-14.45-9.05l-.15.24c.35-.77.67-1.57,1-2.38a34.38,34.38,0,0,0,1.52-5.66,4.32,4.32,0,0,0,4,.48,4,4,0,0,0,2.33-2.24,4.25,4.25,0,0,0-3.72-6,4.2,4.2,0,0,0-2.06.44,35,35,0,0,0-.67-5.71,34.54,34.54,0,0,1,16.22-5.64,4.24,4.24,0,1,0-2.2-6.17c-3.63,2.84-11.21,5.48-15.9,5.59a34.66,34.66,0,0,0-2.38-4.76,32.16,32.16,0,0,1,4.75-2.24,4.24,4.24,0,1,0-3.84-5.29,22.45,22.45,0,0,1-3.55,3.73A34.56,34.56,0,0,0,337,756.62a27.64,27.64,0,0,1,4.62-14.5,4.26,4.26,0,0,0-2.86-7.79A3.92,3.92,0,0,0,336.09,735.69Z"/></g></g><g class="p"><path class="q" d="M1770.21,914.36a33.24,33.24,0,0,1-28.7-16.38l-74.75-126.87c-.18-.31-.36-.62-.53-.94L1532.47,525.34a33.27,33.27,0,1,1,58.4-31.91l133.5,244.36,74.47,126.4a33.28,33.28,0,0,1-28.63,50.17Z"/><path class="q" d="M1738.15,945.69a33.22,33.22,0,0,1-27-13.75l-91.7-126.47c0-.07-.09-.13-.13-.19L1441.74,556.75a33.28,33.28,0,1,1,54.15-38.69l177.53,248.43,91.64,126.39a33.28,33.28,0,0,1-26.91,52.81Z"/><path class="q" d="M1697.1,1013.09a33.28,33.28,0,0,1-33.16-30.93l-3.78-53.33L1389.85,641.19a33.27,33.27,0,0,1,48.5-45.57l278.42,296.27a33.29,33.29,0,0,1,8.94,20.43l4.61,65.14a33.27,33.27,0,0,1-30.84,35.54C1698.68,1013.06,1697.88,1013.09,1697.1,1013.09Z"/><path class="q" d="M1653.55,970.33a29.51,29.51,0,0,1-20.4-8.16l-111.6-106.29-140-72.68a29.58,29.58,0,0,1,27.25-52.5l143.77,74.61a29.61,29.61,0,0,1,6.77,4.83L1674,919.33a29.58,29.58,0,0,1-20.4,51Z"/><path class="r" d="M1510.84,450.84h0a.37.37,0,0,1-.32-.41l19.25-153.06a.37.37,0,1,1,.73.09L1511.2,450.52A.36.36,0,0,1,1510.84,450.84Z"/><path class="s" d="M1504.86,762.13l-66.62-8.38,32.58-259,26.64-19.14a18.71,18.71,0,0,1,18.91,2.38l21.08,25.14Z"/><path class="t" d="M1521.9,605.61l-61.41-7.72L1473.18,497l24.72-19a16.33,16.33,0,0,1,17.44,2.19l19.25,24.53Z"/><rect class="u" x="1456.88" y="624.21" width="34.56" height="225.88" transform="translate(103.52 -178.21) rotate(7.17)"/><rect class="v" x="1468.47" y="624.21" width="11.39" height="225.88" transform="translate(103.51 -178.2) rotate(7.17)"/><path class="v" d="M1494.35,864.79l-71.35-9a5.61,5.61,0,0,1-4.86-6.27h0a5.61,5.61,0,0,1,6.27-4.86l71.34,9a5.61,5.61,0,0,1,4.86,6.27h0A5.6,5.6,0,0,1,1494.35,864.79Z"/><rect class="u" x="1460.46" y="601.04" width="57.49" height="25.23" transform="translate(88.22 -181.05) rotate(7.17)"/><rect class="v" x="1457.42" y="601.18" width="67.16" height="4.17" transform="translate(86.94 -181.35) rotate(7.17)"/><rect class="v" x="1454.29" y="626.07" width="67.16" height="4.17" transform="translate(90.02 -180.77) rotate(7.17)"/><rect class="v" x="1455.84" y="613.81" width="67.16" height="4.17" transform="translate(88.51 -181.06) rotate(7.17)"/><path class="w" d="M1515.05,763.42l-86.84-10.93a3.45,3.45,0,0,0-3.86,3h0a3.46,3.46,0,0,0,3,3.87l86.84,10.92a3.46,3.46,0,0,0,3.86-3h0A3.45,3.45,0,0,0,1515.05,763.42Z"/><rect class="x" x="1454.18" y="682.25" width="0.74" height="16.6" transform="translate(587.88 2047.56) rotate(-82.83)"/><path class="x" d="M1513.74,502.36h0L1471.37,497a.36.36,0,0,1-.32-.41.37.37,0,0,1,.41-.32l42.32,5.32a.37.37,0,0,1,.32.42A.37.37,0,0,1,1513.74,502.36Z"/><path class="x" d="M1507.35,553.14h0L1465,547.81a.37.37,0,0,1-.32-.41.36.36,0,0,1,.41-.32l42.33,5.32a.38.38,0,0,1,.32.41A.38.38,0,0,1,1507.35,553.14Z"/><path class="x" d="M1501,603.91h0l-42.33-5.32a.38.38,0,0,1-.32-.41.38.38,0,0,1,.42-.33l42.32,5.33a.37.37,0,0,1,0,.73Z"/><path class="x" d="M1494.58,654.69h0l-42.32-5.32a.37.37,0,0,1,.09-.74l42.32,5.33a.36.36,0,0,1,.32.41A.36.36,0,0,1,1494.58,654.69Z"/><path class="x" d="M1488.19,705.47h0l-42.32-5.33a.36.36,0,0,1-.32-.41.37.37,0,0,1,.41-.32l42.33,5.32a.38.38,0,0,1,.32.42A.38.38,0,0,1,1488.19,705.47Z"/><path class="x" d="M1487.71,509.22h0L1470.11,507a.2.2,0,0,1-.16-.21.18.18,0,0,1,.21-.16l17.57,2.21a.18.18,0,0,1,.16.21A.18.18,0,0,1,1487.71,509.22Z"/><path class="x" d="M1486.43,519.37h0l-17.57-2.21a.19.19,0,0,1-.17-.21.18.18,0,0,1,.21-.16l17.57,2.21a.18.18,0,0,1,.16.21A.18.18,0,0,1,1486.43,519.37Z"/><path class="x" d="M1485.15,529.53h0l-17.57-2.21a.19.19,0,0,1-.16-.21.17.17,0,0,1,.2-.16l17.58,2.21a.19.19,0,0,1,0,.37Z"/><path class="x" d="M1483.88,539.68h0l-17.57-2.21a.18.18,0,0,1-.16-.2.19.19,0,0,1,.21-.17l17.57,2.21a.2.2,0,0,1,.16.21A.18.18,0,0,1,1483.88,539.68Z"/><path class="x" d="M1481.32,560h0l-17.57-2.21a.17.17,0,0,1-.16-.2.16.16,0,0,1,.2-.16l17.58,2.21a.18.18,0,0,1,.16.2A.19.19,0,0,1,1481.32,560Z"/><path class="x" d="M1480.05,570.15h0l-17.57-2.21a.19.19,0,0,1-.16-.21.17.17,0,0,1,.21-.16l17.57,2.21a.19.19,0,0,1,.16.21A.18.18,0,0,1,1480.05,570.15Z"/><path class="x" d="M1478.77,580.31h0l-17.57-2.21a.18.18,0,0,1-.16-.2.18.18,0,0,1,.21-.16l17.57,2.21a.18.18,0,0,1,.16.2A.18.18,0,0,1,1478.77,580.31Z"/><path class="x" d="M1477.49,590.46h0l-17.58-2.21a.19.19,0,0,1-.16-.21.18.18,0,0,1,.21-.16l17.57,2.21a.19.19,0,0,1,.16.21A.18.18,0,0,1,1477.49,590.46Z"/><path class="x" d="M1474.94,610.77h0l-17.57-2.21a.18.18,0,0,1-.16-.21.18.18,0,0,1,.21-.16L1475,610.4a.2.2,0,0,1,.16.21A.18.18,0,0,1,1474.94,610.77Z"/><path class="x" d="M1473.66,620.93h0l-17.58-2.21a.2.2,0,0,1-.16-.21.18.18,0,0,1,.21-.16l17.57,2.21a.19.19,0,0,1,0,.37Z"/><path class="x" d="M1472.38,631.08h0l-17.58-2.21a.18.18,0,0,1-.16-.21.19.19,0,0,1,.21-.16l17.57,2.21a.19.19,0,0,1,.16.21A.18.18,0,0,1,1472.38,631.08Z"/><path class="x" d="M1471.1,641.24h0L1453.51,639a.19.19,0,0,1-.16-.21.17.17,0,0,1,.2-.16l17.58,2.21a.19.19,0,0,1,.16.21A.19.19,0,0,1,1471.1,641.24Z"/><path class="x" d="M1468.55,661.55h0L1451,659.34a.2.2,0,0,1-.16-.21.18.18,0,0,1,.21-.16l17.57,2.21a.19.19,0,0,1,0,.37Z"/><path class="x" d="M1467.27,671.71h0l-17.57-2.21a.18.18,0,1,1,0-.36l17.57,2.21a.17.17,0,0,1,.16.2A.18.18,0,0,1,1467.27,671.71Z"/><path class="x" d="M1466,681.86h0l-17.57-2.21a.18.18,0,0,1-.16-.21.18.18,0,0,1,.2-.16l17.58,2.21a.2.2,0,0,1,.16.21A.19.19,0,0,1,1466,681.86Z"/><path class="x" d="M1462.16,712.33h0l-17.57-2.21a.18.18,0,0,1-.16-.21.18.18,0,0,1,.2-.16l17.57,2.21a.19.19,0,0,1,.17.21A.2.2,0,0,1,1462.16,712.33Z"/><path class="v" d="M1519.24,476.61l-23-2.89a2.34,2.34,0,0,0-2.62,2h0a2.34,2.34,0,0,0,2,2.62l23,2.9a2.34,2.34,0,0,0,2.62-2h0A2.34,2.34,0,0,0,1519.24,476.61Z"/><path class="v" d="M1508.09,458.38l-6.91,15.36a1.83,1.83,0,0,0,1.43,2.56l9.79,1.23a1.83,1.83,0,0,0,2-2.12l-2.89-16.6A1.82,1.82,0,0,0,1508.09,458.38Z"/><path class="v" d="M1511.24,447.28h0a1.85,1.85,0,0,0-2.07,1.6l-1.35,10.74a1.85,1.85,0,0,0,1.6,2.07h0a1.85,1.85,0,0,0,2.07-1.61l1.35-10.74A1.84,1.84,0,0,0,1511.24,447.28Z"/><polygon class="y" points="1502.22 474.46 1482.68 495.52 1493.42 496.88 1504.75 474.78 1502.22 474.46"/><rect class="y" x="1466.31" y="495.18" width="10.83" height="261.62" transform="translate(89.63 -178.77) rotate(7.17)"/><path d="M1517.88,502.74l.77-3.44,3.32.42-.15,1.14-2.22-.28-.31,1.45a1.39,1.39,0,0,1,.83-.16,1.55,1.55,0,0,1,1.23.76,2.71,2.71,0,0,1,.24,1.76,2.4,2.4,0,0,1-.75,1.59,1.83,1.83,0,0,1-1.54.45,2,2,0,0,1-1-.38,1.89,1.89,0,0,1-.64-.81,2,2,0,0,1-.14-1.06l1.31.16a1.27,1.27,0,0,0,.13.69.56.56,0,0,0,.43.29.55.55,0,0,0,.55-.25,1.91,1.91,0,0,0,.3-.92,1.59,1.59,0,0,0-.1-.92.71.71,0,0,0-.56-.38.74.74,0,0,0-.62.18l-.1.11Z"/><path d="M1514,556.51l-1.33-.17.65-5.22-1.36.34.14-1.11,2.62-.71.14,0Z"/><path d="M1519.64,554.35a3.93,3.93,0,0,1-.78,2.11,1.82,1.82,0,0,1-2.93-.35,3.68,3.68,0,0,1-.27-2.16l.16-1.29a3.92,3.92,0,0,1,.78-2.1,1.85,1.85,0,0,1,3,.36,3.88,3.88,0,0,1,.25,2.19Zm-1.16-1.55a3.54,3.54,0,0,0,0-1.23c-.08-.29-.23-.44-.45-.47-.42-.05-.71.41-.84,1.4l-.22,1.7a3.43,3.43,0,0,0,0,1.26.53.53,0,0,0,.45.46.51.51,0,0,0,.53-.32,3.11,3.11,0,0,0,.31-1.13Z"/><path d="M1507.71,606.12l-1.33-.17.65-5.22-1.36.34.14-1.11,2.62-.71.14,0Z"/><path d="M1509.63,602.94l.78-3.43,3.31.42-.14,1.13-2.22-.28-.31,1.45a1.37,1.37,0,0,1,.83-.15,1.53,1.53,0,0,1,1.22.76,2.77,2.77,0,0,1,.25,1.76,2.45,2.45,0,0,1-.76,1.59,1.86,1.86,0,0,1-1.53.45,2.12,2.12,0,0,1-1-.39,1.8,1.8,0,0,1-.64-.8,2.22,2.22,0,0,1-.14-1.07l1.32.17a1.19,1.19,0,0,0,.13.69.57.57,0,0,0,1,0,2,2,0,0,0,.3-.93,1.54,1.54,0,0,0-.1-.92.7.7,0,0,0-.56-.37.74.74,0,0,0-.62.18l-.09.11Z"/><path d="M1502.29,658.12l-4-.51.12-.94,2.15-2.12a5.12,5.12,0,0,0,.62-.79,1.8,1.8,0,0,0,.26-.68,1.42,1.42,0,0,0-.07-.74.49.49,0,0,0-.42-.31.58.58,0,0,0-.55.23,1.68,1.68,0,0,0-.3.82l-1.33-.16a2.47,2.47,0,0,1,.4-1.12,2.14,2.14,0,0,1,3.3-.19,2,2,0,0,1,.32,1.5,2.7,2.7,0,0,1-.42,1.13,7.34,7.34,0,0,1-1.2,1.34l-1,1.15,2.33.29Z"/><path d="M1506.88,655.83a3.84,3.84,0,0,1-.79,2.1,1.67,1.67,0,0,1-1.56.57,1.7,1.7,0,0,1-1.37-.92,3.76,3.76,0,0,1-.27-2.16l.17-1.29a3.84,3.84,0,0,1,.78-2.1,1.84,1.84,0,0,1,2.94.37,3.74,3.74,0,0,1,.26,2.18Zm-1.16-1.56a3.26,3.26,0,0,0,0-1.23.54.54,0,0,0-.44-.47c-.43-.05-.71.42-.85,1.4l-.21,1.71a3.37,3.37,0,0,0,0,1.25c.07.28.22.44.45.46a.51.51,0,0,0,.53-.31,3.24,3.24,0,0,0,.31-1.14Z"/><path d="M1496.05,707.73l-4-.51.12-.94,2.15-2.12a5.12,5.12,0,0,0,.62-.79,1.63,1.63,0,0,0,.26-.69,1.39,1.39,0,0,0-.07-.73.5.5,0,0,0-.42-.32.61.61,0,0,0-.55.24,1.64,1.64,0,0,0-.3.82l-1.33-.17a2.55,2.55,0,0,1,.4-1.11,2.12,2.12,0,0,1,3.3-.19,2,2,0,0,1,.32,1.5,2.7,2.7,0,0,1-.42,1.13,7.34,7.34,0,0,1-1.2,1.34l-1,1.14,2.32.3Z"/><path d="M1496.87,704.42l.78-3.44,3.31.42-.15,1.14-2.22-.28-.3,1.45a1.35,1.35,0,0,1,.82-.16,1.53,1.53,0,0,1,1.23.76,2.77,2.77,0,0,1,.25,1.76,2.45,2.45,0,0,1-.76,1.59,1.84,1.84,0,0,1-1.53.45,2,2,0,0,1-1-.38,1.89,1.89,0,0,1-.64-.81,2.08,2.08,0,0,1-.14-1.06l1.32.16a1.19,1.19,0,0,0,.12.69.56.56,0,0,0,.44.29.54.54,0,0,0,.54-.25,2,2,0,0,0,.3-.93,1.49,1.49,0,0,0-.1-.91.71.71,0,0,0-.56-.38.74.74,0,0,0-.62.18l-.1.11Z"/><path d="M1493,710l0,.47a1.46,1.46,0,0,1,1.25-.41,1.1,1.1,0,0,1,1,.82,1.4,1.4,0,0,1,1.33-.53c.89.11,1.27.78,1.13,2l-.42,3.33-1.32-.17.4-3.24a1.17,1.17,0,0,0,0-.65.5.5,0,0,0-.39-.24.6.6,0,0,0-.61.39V712l-.44,3.45-1.33-.17.41-3.24a1.14,1.14,0,0,0,0-.64.44.44,0,0,0-.39-.25.6.6,0,0,0-.59.3l-.47,3.69-1.33-.16.64-5.09Z"/><path d="M1499,715.93l-1.33-.17.91-7.22,1.33.17Z"/><polygon class="z" points="1502.32 474.25 1504.87 474.57 1509.46 459.02 1508.13 458.86 1502.32 474.25"/><path class="aa" d="M1675.05,567.1v-.78a43.86,43.86,0,0,0-43.86-43.86h-76.31A43.86,43.86,0,0,0,1511,566.32v.78c0,21-6.81,41.31-18.43,58.85a52.41,52.41,0,0,0-8.75,29.09V807.1A21.11,21.11,0,0,0,1505,828.21h176.17a21.11,21.11,0,0,0,21.11-21.11V655a52.47,52.47,0,0,0-8.75-29.1C1681.86,608.41,1675.05,588.14,1675.05,567.1Z"/><path class="ab" d="M1673.64,602H1512.42a4.63,4.63,0,0,0-4.34,3.12,110.14,110.14,0,0,1-12.1,24.13,50.62,50.62,0,0,0-8.45,28.08V804.78a19.68,19.68,0,0,0,19.69,19.69h171.61a19.71,19.71,0,0,0,19.71-19.71V657.29a50.62,50.62,0,0,0-8.45-28.08,110.14,110.14,0,0,1-12.1-24.13A4.64,4.64,0,0,0,1673.64,602Z"/><rect class="ac" x="1504.38" y="545.2" width="177.31" height="21.31" rx="7.95"/><rect class="ad" x="1492.75" y="511.92" width="200.57" height="49.7" rx="13.04"/><rect class="ae" x="1527.96" y="511.92" width="20.43" height="49.76"/><rect class="y" x="1530.57" y="561.65" width="15.21" height="4.92"/><rect class="b" x="1485.36" y="657.84" width="215.35" height="142.2"/><rect class="x" x="1531.57" y="717.02" width="125.39" height="7.74"/><rect class="ac" x="1531.57" y="736.5" width="66.18" height="3.73"/><rect class="ac" x="1558.06" y="775.61" width="66.18" height="3.73"/><rect class="ac" x="1531.57" y="743.96" width="74" height="3.73"/><rect class="ac" x="1531.57" y="751.42" width="55.64" height="3.73"/><rect class="ac" x="1531.57" y="759.77" width="19.57" height="19.57"/><rect class="af" x="1521.28" y="640.48" width="33.79" height="187.91"/><polygon class="af" points="1521.48 640.49 1534.31 602.4 1534.31 566.57 1546.3 566.57 1546.3 601.84 1555.25 640.49 1521.48 640.49"/><path class="q" d="M1743.81,897a40.72,40.72,0,0,1-38.76-53l26.54-83.2-45.7-97.39a40.67,40.67,0,0,1,73.63-34.56L1812,740.6a40.74,40.74,0,0,1,1.93,29.64l-31.38,98.39A40.7,40.7,0,0,1,1743.81,897Z"/><path class="b" d="M1614.6,964.45l133.13,232.61,192-96.11-132-238a4,4,0,0,0-5.42-1.49l-185.88,97.69A4,4,0,0,0,1614.6,964.45Z"/><circle class="v" cx="1666.84" cy="969.54" r="9.97" transform="translate(-261.43 981.07) rotate(-30.53)"/><circle class="v" cx="1680.81" cy="992.87" r="9.97" transform="translate(606.59 2622.9) rotate(-87.19)"/><circle class="v" cx="1693.14" cy="1015.8" r="9.97" transform="translate(-255.52 697.54) rotate(-21.69)"/><path d="M1537.26,706.11l-4.8-14.7h2.06l2.29,7.24c.63,2,1.17,3.78,1.57,5.5h0c.42-1.7,1-3.56,1.68-5.48l2.49-7.26h2l-5.26,14.7Z"/><path d="M1547.35,701.49l-1.53,4.62h-2l5-14.7h2.29l5,14.7h-2l-1.57-4.62Zm4.82-1.49-1.44-4.23c-.33-1-.55-1.83-.76-2.68h0c-.21.87-.46,1.77-.74,2.66l-1.44,4.25Z"/><path d="M1568.28,705.63a9.44,9.44,0,0,1-3.89.7c-4.14,0-7.26-2.62-7.26-7.44a7.32,7.32,0,0,1,7.68-7.72,7.93,7.93,0,0,1,3.49.65l-.46,1.55a6.89,6.89,0,0,0-3-.61c-3.44,0-5.74,2.2-5.74,6.07,0,3.6,2.08,5.91,5.66,5.91a7.58,7.58,0,0,0,3.09-.61Z"/><path d="M1580.48,705.63a9.44,9.44,0,0,1-3.89.7c-4.14,0-7.26-2.62-7.26-7.44a7.32,7.32,0,0,1,7.68-7.72,7.93,7.93,0,0,1,3.49.65l-.46,1.55a6.89,6.89,0,0,0-3-.61c-3.44,0-5.74,2.2-5.74,6.07,0,3.6,2.08,5.91,5.66,5.91a7.58,7.58,0,0,0,3.09-.61Z"/><path d="M1584.76,691.41v14.7h-1.9v-14.7Z"/><path d="M1588.08,706.11v-14.7h2.07l4.71,7.44a41.37,41.37,0,0,1,2.64,4.78l0,0c-.17-2-.21-3.75-.21-6v-6.15h1.79v14.7h-1.92l-4.67-7.46a45.24,45.24,0,0,1-2.75-4.91l-.07,0c.11,1.86.15,3.63.15,6.07v6.28Z"/><path d="M1604.82,701.49l-1.53,4.62h-2l5-14.7h2.29l5,14.7h-2l-1.57-4.62Zm4.82-1.49-1.44-4.23c-.33-1-.55-1.83-.77-2.68h0c-.22.87-.46,1.77-.74,2.66l-1.44,4.25Z"/><path d="M1616.91,693h-4.48v-1.61h10.89V693h-4.49v13.09h-1.92Z"/><path d="M1626.86,691.41v14.7H1625v-14.7Z"/><path d="M1642.75,698.61c0,5.06-3.08,7.74-6.83,7.74s-6.62-3-6.62-7.46c0-4.67,2.91-7.72,6.83-7.72S1642.75,694.24,1642.75,698.61Zm-11.42.24c0,3.14,1.71,5.95,4.69,5.95s4.72-2.77,4.72-6.1c0-2.93-1.53-6-4.69-6S1631.33,695.62,1631.33,698.85Z"/><path d="M1645.21,706.11v-14.7h2.08l4.71,7.44a41.37,41.37,0,0,1,2.64,4.78l0,0c-.17-2-.21-3.75-.21-6v-6.15h1.79v14.7h-1.92l-4.67-7.46a45.24,45.24,0,0,1-2.75-4.91l-.07,0c.11,1.86.15,3.63.15,6.07v6.28Z"/></g><g class="ag"><g class="m"><path class="ah" d="M2795.05,173.34c-19.09,22.64-21.31,49.79-12,71.86,3.28,65-29.74,170-69.47,224.22a549.85,549.85,0,0,0-102.17-18.66q4.62-18.69,10.61-37a67.41,67.41,0,1,0-103.84-5,273.73,273.73,0,0,1,8,41.29,550.76,550.76,0,0,0-131,25.37c-46.76-75.38-72-153.95-78.47-235.29A67.4,67.4,0,1,0,2219,275.63c43,53.83,82.81,164.26,87.12,237.4a552.7,552.7,0,0,0-132,97.5Q2164,595.34,2155,579.45a67.4,67.4,0,1,0-73.58,73.44,276.41,276.41,0,0,1,37,22.72,552.07,552.07,0,0,0-72.88,137.57c-4.29,11.9-8.11,23.86-11.54,35.84-97.88,15.13-188.73,6.13-273.52-23.65a67.39,67.39,0,1,0-8,103.81c69.43-17,192.09-7.19,262.59,19.81a551.21,551.21,0,0,0,59.53,304.94c-68.06,64.1-143.78,105.82-226.13,128.19a67.4,67.4,0,1,0,52.77,89.6c47.4-54.63,156.52-117.42,228.23-132.08a548.9,548.9,0,0,0,247.68,179.5,555.29,555.29,0,0,0,94.74,25c20.19,96.79,15.71,187.71-10,273.59a67.4,67.4,0,1,0,104,2.91c-21.13-70.48-16.28-198.91,9.48-268.8a550.39,550.39,0,0,0,149.74-24,519.84,519.84,0,0,1,9.55,85.91,67.4,67.4,0,1,0,99.49-30.24c-14.94-21-29-49.81-40.9-81.55a554,554,0,0,0,124.41-78.22c4.3,8.81,8.31,17.76,12.12,26.81a67.4,67.4,0,1,0,81.79-64.22,270.12,270.12,0,0,1-31-24.19,548.78,548.78,0,0,0,37.4-48.2c92.26,29.17,167.47,76.82,228,140.37a67.4,67.4,0,1,0,53.69-89.05c-73.13-16.25-185.45-86.56-229.59-143.82l-2.34,3.8q8.22-18.46,15.22-37.78a554.69,554.69,0,0,0,24.17-90.06c16.89,11.74,39.39,16.13,63.18,7.67a63,63,0,0,0,37.07-35.54c19.15-47-13.92-93-59.18-94.81a67.1,67.1,0,0,0-32.7,7A549.51,549.51,0,0,0,3105,891.12c82.63-53.66,168.74-82.38,257.83-89.64a67.39,67.39,0,1,0-35.08-98c-57.68,45-178.13,87-252.7,88.75a555.43,555.43,0,0,0-37.79-75.6,513.93,513.93,0,0,1,75.6-35.62,67.4,67.4,0,1,0-61.1-84.11c-13.51,19-33.38,39.53-56.43,59.26a548.09,548.09,0,0,0-186.63-150.24c3.59-87.77,29-164.06,73.28-230.48a67.17,67.17,0,0,0,27.36-36c14.06-44.25-19.92-92.26-72.81-87.7A61.49,61.49,0,0,0,2795.05,173.34Z"/></g></g></svg>