<svg viewBox="0 0 300 300" height="300" width="300" xmlns="http://www.w3.org/2000/svg">,,<g transform="matrix(12.5,0,0,12.5,0,0)"><path d="M4.036,11.129A5.97,5.97,0,0,0,3,14.5v4.046c0,1.513.672,2.23,2,2.954v2" fill="none" stroke="#fff" stroke-linecap="round" stroke-linejoin="round"></path><path d="M16,17.5,16,18.693c-.043,1.413-.713,2.106-2,2.807v2" fill="none" stroke="#fff" stroke-linecap="round" stroke-linejoin="round"></path><path d="M6.28,13.346,2.8,9.909C-2.42,5.041,4.866-2.795,10,1.994l2,1.864,2-1.864c5.136-4.789,12.422,3.047,7.2,7.915l-8.849,8.738a.5.5,0,0,1-.7,0l-.666-.658c.1-1,.483-2.789-1.338-3.753l1.19-2.248a1.7,1.7,0,1,0-3-1.585L5,15.765" fill="none" stroke="#fff" stroke-linecap="round" stroke-linejoin="round"></path></g></svg>