<svg viewBox="0 0 70 70" height="70" width="70" xmlns="http://www.w3.org/2000/svg">,,,,,,,,,,,,,,,,<g transform="matrix(2.9166666666666665,0,0,2.9166666666666665,0,0)"><path d="M22.275 4.429L18.538 3" fill="none" stroke="#0c2577" stroke-linecap="round" stroke-linejoin="round"></path><path d="M20.194 7.839L17.214 5.17" fill="none" stroke="#0c2577" stroke-linecap="round" stroke-linejoin="round"></path><path d="M1.725 4.429L5.462 3" fill="none" stroke="#0c2577" stroke-linecap="round" stroke-linejoin="round"></path><path d="M3.806 7.839L6.786 5.17" fill="none" stroke="#0c2577" stroke-linecap="round" stroke-linejoin="round"></path><path d="M8.714,11a11.016,11.016,0,0,0,2,.425" fill="none" stroke="#0c2577" stroke-linecap="round" stroke-linejoin="round"></path><path d="M15,11.085c.1-.027.191-.055.285-.085" fill="none" stroke="#0c2577" stroke-linecap="round" stroke-linejoin="round"></path><path d="M13.288,11.425A10.99,10.99,0,0,0,15,11.085" fill="none" stroke="#0c2577" stroke-linecap="round" stroke-linejoin="round"></path><path d="M19.549,8.5a10.966,10.966,0,0,0,3.439-7.476.5.5,0,0,0-.5-.524H18.409A2.005,2.005,0,0,0,16.67,1.509a13.966,13.966,0,0,1-2.94,3.137" fill="none" stroke="#0c2577" stroke-linecap="round" stroke-linejoin="round"></path><path d="M4.379,8.432A10.97,10.97,0,0,1,1.012,1.024.5.5,0,0,1,1.512.5H5.591A2.005,2.005,0,0,1,7.33,1.509a13.966,13.966,0,0,0,2.94,3.137" fill="none" stroke="#0c2577" stroke-linecap="round" stroke-linejoin="round"></path><path d="M11.132 17.859L11.031 16.315" fill="none" stroke="#0c2577" stroke-linecap="round" stroke-linejoin="round"></path><path d="M12.943 16.714L12.886 17.584" fill="none" stroke="#0c2577" stroke-linecap="round" stroke-linejoin="round"></path><path d="M10.779,12.442,10.13,2.5a1.874,1.874,0,1,1,3.74,0L13.2,12.754" fill="none" stroke="#0c2577" stroke-linecap="round" stroke-linejoin="round"></path><path d="M15.794,22.135C15.263,22.928,13.765,23.5,12,23.5c-2.209,0-4-.895-4-2s1.791-2,4-2" fill="none" stroke="#0c2577" stroke-linecap="round" stroke-linejoin="round"></path><path d="M8.212,18.632A2.035,2.035,0,0,1,7,17a1.706,1.706,0,0,1,.707-1.283" fill="none" stroke="#0c2577" stroke-linecap="round" stroke-linejoin="round"></path><path d="M12,14.5c2.761,0,5,1.119,5,2.5,0,.776-.708,1.47-1.818,1.929A8.5,8.5,0,0,1,12,19.5" fill="none" stroke="#0c2577" stroke-linecap="round" stroke-linejoin="round"></path><path d="M16.035,13.952C17.829,13.409,19,12.513,19,11.5a2.8,2.8,0,0,0-1.248-2.332L16,8" fill="none" stroke="#0c2577" stroke-linecap="round" stroke-linejoin="round"></path><path d="M8,8,6.248,9.168A2.8,2.8,0,0,0,5,11.5c0,1.657,3.134,3,7,3" fill="none" stroke="#0c2577" stroke-linecap="round" stroke-linejoin="round"></path></g></svg>