<svg viewBox="0 0 70 70" height="70" width="70" xmlns="http://www.w3.org/2000/svg">,,,,,,,<g transform="matrix(2.9166666666666665,0,0,2.9166666666666665,0,0)"><path d="M16.442,8.08A4.354,4.354,0,0,0,12,11.108,4.354,4.354,0,0,0,7.558,8.08" fill="none" stroke="#0c2577" stroke-linecap="round" stroke-linejoin="round"></path><path d="M3.9,2.5,1.486,5.517A4.5,4.5,0,0,0,.5,8.329V13.5A1.5,1.5,0,0,0,2,15H2a1.5,1.5,0,0,0,1.5-1.5V9.625" fill="none" stroke="#0c2577" stroke-linecap="round" stroke-linejoin="round"></path><path d="M8,2.5V6.136a4.493,4.493,0,0,1-.757,2.5L6.1,10.346a1.4,1.4,0,0,1-1.977.445h0A1.4,1.4,0,0,1,3.648,9L5,6.75" fill="none" stroke="#0c2577" stroke-linecap="round" stroke-linejoin="round"></path><path d="M2.500 0.500 L8.500 0.500 L8.500 2.500 L2.500 2.500 Z" fill="none" stroke="#0c2577" stroke-linecap="round" stroke-linejoin="round"></path><path d="M20.1,2.5l2.414,3.017A4.5,4.5,0,0,1,23.5,8.329V13.5A1.5,1.5,0,0,1,22,15h0a1.5,1.5,0,0,1-1.5-1.5V9.625" fill="none" stroke="#0c2577" stroke-linecap="round" stroke-linejoin="round"></path><path d="M16,2.5V6.136a4.493,4.493,0,0,0,.757,2.5L17.9,10.346a1.4,1.4,0,0,0,1.977.445h0A1.4,1.4,0,0,0,20.352,9L19,6.75" fill="none" stroke="#0c2577" stroke-linecap="round" stroke-linejoin="round"></path><path d="M15.500 0.500 L21.500 0.500 L21.500 2.500 L15.500 2.500 Z" fill="none" stroke="#0c2577" stroke-linecap="round" stroke-linejoin="round" transform="translate(37 3) rotate(-180)"></path><path d="M19.547,16.125c-1.911,3.31-6.124,6.466-7.26,7.281a.485.485,0,0,1-.574,0c-1.136-.815-5.349-3.971-7.26-7.281" fill="none" stroke="#0c2577" stroke-linecap="round" stroke-linejoin="round"></path></g></svg>