<svg viewBox="0 0 70 70" height="70" width="70" xmlns="http://www.w3.org/2000/svg">,,,,,,,,,,<g transform="matrix(2.9166666666666665,0,0,2.9166666666666665,0,0)"><path d="M3.846,2.605A7.054,7.054,0,0,0,8.913,4.75a7.056,7.056,0,0,0,2.776-.567" fill="none" stroke="#0c2577" stroke-linecap="round" stroke-linejoin="round"></path><path d="M3.246 4.750 A4.250 4.250 0 1 0 11.746 4.750 A4.250 4.250 0 1 0 3.246 4.750 Z" fill="none" stroke="#0c2577" stroke-linecap="round" stroke-linejoin="round"></path><path d="M11,11.437A7,7,0,0,0,.5,17.5v1h9" fill="none" stroke="#0c2577" stroke-linecap="round" stroke-linejoin="round"></path><path d="M11.496 14.500 L23.496 14.500 L23.496 23.500 L11.496 23.500 Z" fill="none" stroke="#0c2577" stroke-linecap="round" stroke-linejoin="round"></path><path d="M20,18.25a.25.25,0,0,0-.25-.25H18.5V16.75a.25.25,0,0,0-.25-.25h-1.5a.25.25,0,0,0-.25.25V18h-1.25a.25.25,0,0,0-.25.25v1.5a.25.25,0,0,0,.25.25H16.5v1.25a.25.25,0,0,0,.25.25h1.5a.25.25,0,0,0,.25-.25V20h1.25a.25.25,0,0,0,.25-.25Z" fill="none" stroke="#0c2577" stroke-linecap="round" stroke-linejoin="round"></path><path d="M15.5,14.5v-1a1,1,0,0,1,1-1h2a1,1,0,0,1,1,1v1" fill="none" stroke="#0c2577" stroke-linecap="round" stroke-linejoin="round"></path><path d="M4.496 11.174L4.496 14.5" fill="none" stroke="#0c2577" stroke-linecap="round" stroke-linejoin="round"></path><path d="M3.496 15.500 A1.000 1.000 0 1 0 5.496 15.500 A1.000 1.000 0 1 0 3.496 15.500 Z" fill="none" stroke="#0c2577" stroke-linecap="round" stroke-linejoin="round"></path><path d="M7.496 10.5L7.496 18.5" fill="none" stroke="#0c2577" stroke-linecap="round" stroke-linejoin="round"></path><path d="M10.996 11.436L10.996 13" fill="none" stroke="#0c2577" stroke-linecap="round" stroke-linejoin="round"></path><path d="M11.5,13.087A1.5,1.5,0,0,0,11,13h0a1.5,1.5,0,0,0-1.5,1.5v2" fill="none" stroke="#0c2577" stroke-linecap="round" stroke-linejoin="round"></path></g></svg>